<svg width="22" height="16" viewBox="0 0 22 16" fill="none" xmlns="http://www.w3.org/2000/svg">
<g clip-path="url(#clip0)">
<path d="M18.333 12.2316H8.79182C7.01643 12.2316 6.21895 10.9003 6.04502 10.1961L6.03854 10.1689L4.46576 2.85146C4.26315 1.8666 3.66272 1.88443 3.63311 1.88819H0.930714C0.808491 1.88819 0.687459 1.86376 0.57454 1.8163C0.46162 1.76883 0.359022 1.69926 0.272597 1.61155C0.186172 1.52385 0.117617 1.41973 0.0708441 1.30514C0.0240713 1.19055 0 1.06774 0 0.943705C0 0.819673 0.0240713 0.69685 0.0708441 0.582259C0.117617 0.467668 0.186172 0.363551 0.272597 0.275847C0.359022 0.188143 0.46162 0.118567 0.57454 0.0711022C0.687459 0.0236372 0.808491 -0.000790479 0.930714 -0.000790464H3.56743C4.35104 -0.0289562 5.87294 0.445171 6.28741 2.4562L7.85093 9.73234C7.90181 9.89383 8.1072 10.3417 8.79182 10.3417H18.333C18.5799 10.3417 18.8166 10.4412 18.9911 10.6183C19.1657 10.7954 19.2637 11.0357 19.2637 11.2861C19.2637 11.5366 19.1657 11.7769 18.9911 11.954C18.8166 12.1311 18.5799 12.2306 18.333 12.2306V12.2316Z" fill="#464646"/>
<path d="M17.978 9.31954H9.58125C9.36754 9.31926 9.16041 9.2445 8.99453 9.10777C8.82864 8.97105 8.71406 8.78066 8.66996 8.56846L7.46169 2.78228C7.43291 2.64462 7.43477 2.50218 7.46715 2.36534C7.49952 2.2285 7.5616 2.10073 7.64883 1.99133C7.73606 1.88194 7.84625 1.79368 7.97137 1.73301C8.09649 1.67234 8.23338 1.64077 8.37205 1.64062H20.3992C20.5529 1.6408 20.7043 1.6796 20.8397 1.75356C20.9751 1.82752 21.0903 1.93434 21.1752 2.06449C21.26 2.19464 21.3118 2.34408 21.3258 2.49946C21.3399 2.65485 21.3159 2.81136 21.2559 2.95503L18.831 8.74402C18.7605 8.91454 18.6419 9.06012 18.4902 9.16251C18.3384 9.2649 18.1603 9.31953 17.978 9.31954ZM10.3353 7.42962H17.3665L18.9994 3.53055H9.52018L10.3353 7.42962Z" fill="#464646"/>
<path d="M10.3966 14.485C10.3964 14.7847 10.3087 15.0775 10.1445 15.3266C9.9803 15.5757 9.74703 15.7698 9.47416 15.8843C9.2013 15.9989 8.90109 16.0287 8.6115 15.9701C8.3219 15.9116 8.05592 15.7672 7.84719 15.5552C7.63845 15.3433 7.49632 15.0733 7.43878 14.7793C7.38124 14.4854 7.41087 14.1808 7.52391 13.904C7.63696 13.6271 7.82834 13.3905 8.07388 13.2241C8.31942 13.0576 8.60807 12.9688 8.90336 12.9688C9.09953 12.9687 9.29378 13.008 9.47501 13.0842C9.65623 13.1604 9.82088 13.2721 9.95955 13.4129C10.0982 13.5537 10.2082 13.7209 10.2832 13.9048C10.3582 14.0888 10.3967 14.2859 10.3966 14.485Z" fill="#464646"/>
<path d="M19.0704 14.485C19.0702 14.7847 18.9825 15.0775 18.8183 15.3266C18.6541 15.5757 18.4209 15.7698 18.148 15.8843C17.8751 15.9989 17.5749 16.0287 17.2853 15.9701C16.9957 15.9116 16.7297 15.7672 16.521 15.5552C16.3123 15.3433 16.1701 15.0733 16.1126 14.7793C16.0551 14.4854 16.0847 14.1808 16.1977 13.904C16.3108 13.6271 16.5022 13.3905 16.7477 13.2241C16.9932 13.0576 17.2819 12.9688 17.5772 12.9688C17.7734 12.9687 17.9676 13.008 18.1488 13.0842C18.3301 13.1604 18.4947 13.2721 18.6334 13.4129C18.772 13.5537 18.882 13.7209 18.957 13.9048C19.032 14.0888 19.0705 14.2859 19.0704 14.485Z" fill="#464646"/>
</g>
<defs>
<clipPath id="clip0">
<rect width="21.3333" height="16" fill="white"/>
</clipPath>
</defs>
</svg>
